<svg width="548" height="112" viewBox="0 0 548 112" fill="none" xmlns="http://www.w3.org/2000/svg">
<path d="M222.022 42.2664C222.022 47.6594 221 52.2474 218.955 56.0306C216.927 59.8137 214.158 62.7034 210.648 64.6996C207.155 66.6797 203.227 67.6698 198.864 67.6698C194.469 67.6698 190.525 66.6717 187.032 64.6755C183.538 62.6793 180.778 59.7896 178.749 56.0064C176.721 52.2233 175.707 47.6433 175.707 42.2664C175.707 36.8734 176.721 32.2853 178.749 28.5022C180.778 24.719 183.538 21.8374 187.032 19.8573C190.525 17.8611 194.469 16.863 198.864 16.863C203.227 16.863 207.155 17.8611 210.648 19.8573C214.158 21.8374 216.927 24.719 218.955 28.5022C221 32.2853 222.022 36.8734 222.022 42.2664ZM211.421 42.2664C211.421 38.773 210.898 35.827 209.851 33.4283C208.821 31.0296 207.364 29.2105 205.481 27.9709C203.597 26.7313 201.392 26.1116 198.864 26.1116C196.337 26.1116 194.131 26.7313 192.248 27.9709C190.364 29.2105 188.899 31.0296 187.853 33.4283C186.823 35.827 186.307 38.773 186.307 42.2664C186.307 45.7597 186.823 48.7058 187.853 51.1044C188.899 53.5031 190.364 55.3223 192.248 56.5618C194.131 57.8014 196.337 58.4212 198.864 58.4212C201.392 58.4212 203.597 57.8014 205.481 56.5618C207.364 55.3223 208.821 53.5031 209.851 51.1044C210.898 48.7058 211.421 45.7597 211.421 42.2664ZM236.461 45.5505V66.9937H226.174V29.9027H235.978V36.4468H236.413C237.234 34.2896 238.61 32.5831 240.542 31.3275C242.474 30.0557 244.816 29.4198 247.569 29.4198C250.145 29.4198 252.39 29.9832 254.306 31.1101C256.222 32.237 257.711 33.8469 258.774 35.9397C259.836 38.0164 260.367 40.4955 260.367 43.3772V66.9937H250.08V45.2124C250.096 42.9425 249.517 41.1717 248.342 39.8999C247.167 38.612 245.549 37.9681 243.488 37.9681C242.104 37.9681 240.88 38.2659 239.818 38.8615C238.771 39.4572 237.95 40.3265 237.355 41.4695C236.775 42.5964 236.477 43.9567 236.461 45.5505ZM281.978 67.7181C278.163 67.7181 274.879 66.9454 272.126 65.3999C269.389 63.8383 267.28 61.6329 265.799 58.7834C264.318 55.9179 263.578 52.5292 263.578 48.6172C263.578 44.8019 264.318 41.4534 265.799 38.5718C267.28 35.6901 269.365 33.4444 272.054 31.8346C274.758 30.2247 277.93 29.4198 281.568 29.4198C284.015 29.4198 286.293 29.8142 288.402 30.603C290.527 31.3758 292.378 32.5429 293.956 34.1044C295.549 35.666 296.789 37.63 297.674 39.9965C298.56 42.3469 299.002 45.0997 299.002 48.255V51.0803H267.683V44.7053H289.319C289.319 43.2242 288.997 41.9122 288.353 40.7692C287.709 39.6262 286.816 38.7328 285.673 38.0888C284.546 37.4288 283.234 37.0988 281.737 37.0988C280.175 37.0988 278.791 37.461 277.583 38.1854C276.392 38.8937 275.458 39.8516 274.782 41.059C274.106 42.2503 273.76 43.5784 273.744 45.0434V51.1044C273.744 52.9397 274.082 54.5254 274.758 55.8615C275.45 57.1977 276.424 58.228 277.68 58.9525C278.936 59.6769 280.425 60.0391 282.147 60.0391C283.29 60.0391 284.337 59.8781 285.287 59.5562C286.236 59.2342 287.049 58.7512 287.725 58.1073C288.402 57.4633 288.917 56.6745 289.271 55.7408L298.785 56.3687C298.302 58.6546 297.312 60.6508 295.815 62.3573C294.334 64.0476 292.418 65.3677 290.068 66.3175C287.734 67.2512 285.037 67.7181 281.978 67.7181ZM312.963 26.1598V17.5391H353.58V26.1598H338.439V66.9937H328.104V26.1598H312.963ZM362.206 67.6939C359.839 67.6939 357.73 67.2834 355.879 66.4624C354.027 65.6253 352.563 64.3937 351.484 62.7678C350.421 61.1258 349.89 59.0812 349.89 56.6343C349.89 54.5737 350.268 52.8431 351.025 51.4425C351.782 50.0419 352.812 48.9151 354.116 48.0618C355.42 47.2086 356.901 46.5647 358.559 46.13C360.233 45.6954 361.988 45.3895 363.823 45.2124C365.981 44.987 367.719 44.7777 369.039 44.5846C370.359 44.3753 371.317 44.0694 371.913 43.6669C372.509 43.2645 372.806 42.6688 372.806 41.88V41.7351C372.806 40.2058 372.323 39.0225 371.357 38.1854C370.408 37.3483 369.055 36.9297 367.301 36.9297C365.449 36.9297 363.976 37.3402 362.882 38.1613C361.787 38.9662 361.063 39.9804 360.708 41.2039L351.194 40.4312C351.677 38.1774 352.627 36.2294 354.044 34.5874C355.46 32.9293 357.287 31.6575 359.525 30.7721C361.779 29.8705 364.387 29.4198 367.349 29.4198C369.41 29.4198 371.382 29.6613 373.265 30.1442C375.165 30.6272 376.847 31.3758 378.312 32.39C379.793 33.4042 380.96 34.7081 381.813 36.3019C382.667 37.8795 383.093 39.7711 383.093 41.9766V66.9937H373.338V61.8502H373.048C372.452 63.0093 371.655 64.0315 370.657 64.9169C369.659 65.7863 368.46 66.4705 367.059 66.9695C365.659 67.4525 364.041 67.6939 362.206 67.6939ZM365.152 60.5945C366.665 60.5945 368.001 60.2967 369.16 59.701C370.319 59.0893 371.229 58.2683 371.889 57.238C372.549 56.2077 372.879 55.0405 372.879 53.7365V49.8005C372.557 50.0098 372.114 50.2029 371.551 50.38C371.003 50.541 370.384 50.6939 369.691 50.8388C368.999 50.9676 368.307 51.0883 367.615 51.201C366.922 51.2976 366.295 51.3862 365.731 51.4667C364.524 51.6437 363.469 51.9255 362.568 52.3118C361.666 52.6982 360.966 53.2214 360.467 53.8814C359.968 54.5254 359.718 55.3303 359.718 56.2962C359.718 57.6968 360.225 58.7673 361.24 59.5079C362.27 60.2323 363.574 60.5945 365.152 60.5945ZM387.674 80.9027V29.9027H397.816V36.1329H398.275C398.726 35.1347 399.378 34.1205 400.231 33.0902C401.1 32.0438 402.227 31.1745 403.612 30.4823C405.012 29.774 406.751 29.4198 408.828 29.4198C411.532 29.4198 414.027 30.1281 416.313 31.5448C418.599 32.9454 420.426 35.0623 421.795 37.8956C423.163 40.7129 423.847 44.2465 423.847 48.4965C423.847 52.6338 423.179 56.1272 421.843 58.9766C420.523 61.8099 418.72 63.9591 416.434 65.4241C414.164 66.8729 411.621 67.5973 408.803 67.5973C406.807 67.5973 405.109 67.2673 403.708 66.6073C402.324 65.9473 401.189 65.1182 400.303 64.1201C399.418 63.1059 398.742 62.0836 398.275 61.0533H397.961V80.9027H387.674ZM397.744 48.4482C397.744 50.6537 398.05 52.5775 398.661 54.2195C399.273 55.8615 400.158 57.1414 401.318 58.059C402.477 58.9605 403.885 59.4113 405.543 59.4113C407.218 59.4113 408.634 58.9525 409.793 58.0348C410.953 57.1011 411.83 55.8133 412.426 54.1712C413.037 52.5131 413.343 50.6054 413.343 48.4482C413.343 46.3071 413.045 44.4236 412.45 42.7976C411.854 41.1717 410.977 39.8999 409.818 38.9823C408.658 38.0647 407.234 37.6059 405.543 37.6059C403.869 37.6059 402.453 38.0486 401.293 38.934C400.15 39.8194 399.273 41.0751 398.661 42.701C398.05 44.327 397.744 46.2427 397.744 48.4482ZM450.293 17.5391V66.9937H439.837V17.5391H450.293ZM465.589 45.5505V66.9937H455.302V29.9027H465.106V36.4468H465.541C466.362 34.2896 467.738 32.5831 469.67 31.3275C471.602 30.0557 473.944 29.4198 476.697 29.4198C479.273 29.4198 481.519 29.9832 483.434 31.1101C485.35 32.237 486.839 33.8469 487.902 35.9397C488.964 38.0164 489.495 40.4955 489.495 43.3772V66.9937H479.208V45.2124C479.225 42.9425 478.645 41.1717 477.47 39.8999C476.295 38.612 474.677 37.9681 472.616 37.9681C471.232 37.9681 470.008 38.2659 468.946 38.8615C467.899 39.4572 467.078 40.3265 466.483 41.4695C465.903 42.5964 465.605 43.9567 465.589 45.5505ZM510.962 67.7181C507.162 67.7181 503.894 66.9132 501.158 65.3033C498.437 63.6774 496.344 61.4236 494.879 58.5419C493.43 55.6603 492.706 52.344 492.706 48.5931C492.706 44.7938 493.438 41.4615 494.903 38.5959C496.384 35.7143 498.485 33.4686 501.206 31.8587C503.926 30.2328 507.162 29.4198 510.913 29.4198C514.149 29.4198 516.982 30.0074 519.413 31.1826C521.844 32.3578 523.768 34.0079 525.185 36.1329C526.601 38.2579 527.382 40.7531 527.527 43.6187H517.819C517.546 41.7673 516.821 40.2782 515.646 39.1513C514.487 38.0083 512.966 37.4368 511.082 37.4368C509.489 37.4368 508.096 37.8715 506.905 38.7408C505.73 39.594 504.812 40.8417 504.152 42.4837C503.492 44.1258 503.162 46.1139 503.162 48.4482C503.162 50.8147 503.484 52.827 504.128 54.4851C504.788 56.1433 505.713 57.407 506.905 58.2763C508.096 59.1456 509.489 59.5803 511.082 59.5803C512.257 59.5803 513.312 59.3388 514.246 58.8559C515.195 58.3729 515.976 57.6726 516.588 56.755C517.216 55.8213 517.626 54.7025 517.819 53.3985H527.527C527.366 56.2318 526.593 58.7271 525.209 60.8843C523.84 63.0254 521.949 64.6996 519.534 65.907C517.119 67.1144 514.262 67.7181 510.962 67.7181ZM536.726 67.6215C535.132 67.6215 533.764 67.058 532.621 65.9312C531.494 64.7882 530.931 63.4198 530.931 61.826C530.931 60.2484 531.494 58.8961 532.621 57.7692C533.764 56.6423 535.132 56.0789 536.726 56.0789C538.271 56.0789 539.624 56.6423 540.783 57.7692C541.942 58.8961 542.521 60.2484 542.521 61.826C542.521 62.8885 542.248 63.8625 541.7 64.7479C541.169 65.6172 540.469 66.3175 539.6 66.8488C538.73 67.3639 537.772 67.6215 536.726 67.6215Z" fill="white"/>
<rect x="63.8433" y="23.1433" width="32.8577" height="88.7361" fill="white"/>
<rect x="0.283691" y="16.7664" width="160.022" height="6.41187" fill="white"/>
</svg>
