<svg width="321" height="180" viewBox="0 0 321 180" fill="none" xmlns="http://www.w3.org/2000/svg">
<path d="M24.664 124.268C24.664 128.063 21.3439 131.146 17.3122 131.146C13.2806 131.146 9.96047 128.063 9.96047 124.268V55.731C9.96047 51.9365 13.2806 48.8535 17.3122 48.8535C21.3439 48.8535 24.664 51.9365 24.664 55.731V124.268ZM20.6324 40.7903C16.3636 40.7903 12.5692 42.4504 9.96047 45.2962V41.5017H0V180H9.72331V134.94C12.332 137.786 16.1265 139.446 20.3952 139.446C28.9328 139.446 34.3873 134.466 34.3873 126.403V53.8338C34.3873 45.7705 29.1699 40.7903 20.6324 40.7903Z" fill="black"/>
<path d="M310.434 41.502V124.269C310.434 128.063 307.114 131.146 303.083 131.146C299.051 131.146 295.731 128.063 295.731 124.269V41.502H286.008V126.166C286.008 134.229 291.225 139.209 300 139.209C304.268 139.209 308.063 137.549 310.672 134.703V180H320.395V41.502H310.434Z" fill="black"/>
<path d="M185.692 124.269C185.692 128.063 182.371 131.146 178.34 131.146C174.308 131.146 170.988 128.063 170.988 124.269V55.7312C170.988 51.9367 174.308 48.8537 178.34 48.8537C182.371 48.8537 185.692 51.9367 185.692 55.7312V124.269ZM181.66 40.7905C177.391 40.7905 173.597 42.4506 170.988 45.2964V0H161.265V138.498H170.988V134.941C173.597 137.786 177.391 139.447 181.66 139.447C190.197 139.447 195.652 134.466 195.652 126.403V53.8339C195.652 45.7707 190.197 40.7905 181.66 40.7905Z" fill="black"/>
<path d="M276.759 40.7903C272.49 40.7903 268.695 42.4504 266.087 45.2962V41.5017H256.363V138.498H266.087V55.731C266.087 51.9365 269.407 48.8535 273.438 48.8535C275.336 48.8535 276.759 49.0907 278.419 49.565V40.7903C277.944 40.7903 277.233 40.7903 276.759 40.7903Z" fill="black"/>
<path d="M136.601 96.2843C138.498 97.4701 139.684 99.6045 139.684 101.739V124.98C139.684 128.537 136.601 131.383 133.043 131.383C129.486 131.383 126.403 128.537 126.403 124.98V102.925H116.68V123.794C116.68 132.332 124.032 139.446 133.043 139.446C142.055 139.446 149.407 132.569 149.407 123.794V101.739C149.407 96.5215 146.798 91.5412 141.818 88.4582L128.063 80.1578C126.166 78.9721 124.98 76.8377 124.98 74.7033V55.2567C124.98 51.6994 128.063 48.8535 131.62 48.8535C135.178 48.8535 138.261 51.6994 138.261 55.2567V75.4148H147.984V56.4424C147.984 47.9049 140.632 40.7903 131.62 40.7903C122.609 40.7903 115.257 47.6677 115.257 56.4424V74.7033C115.257 79.9207 117.866 84.9009 122.846 87.9839L136.601 96.2843Z" fill="black"/>
<path d="M233.36 41.502V124.269C233.36 128.063 230.039 131.146 226.008 131.146C221.976 131.146 218.656 128.063 218.656 124.269V41.502H208.696V126.166C208.696 134.229 213.913 139.209 222.688 139.209C226.956 139.209 230.751 137.549 233.36 134.703V138.498H243.083V41.502H233.36Z" fill="black"/>
<path d="M80.1579 0H70.4346V138.498H80.1579V0Z" fill="black"/>
<path d="M103.399 0H93.6758V138.735H103.399V0Z" fill="black"/>
<path d="M57.3913 41.9761H47.4308V138.261H57.3913V41.9761Z" fill="black"/>
</svg>
