<svg width="200" height="49" viewBox="0 0 200 49" fill="none" xmlns="http://www.w3.org/2000/svg">
<path d="M0 47.2419V0.6694H12.5217V8.7908H13.0041C13.8507 5.90401 15.2682 3.71862 17.2567 2.23461C19.2502 0.745692 21.5635 0 24.1968 0C25.4495 0 26.6111 0.152584 27.6817 0.452829C28.7497 0.755536 29.712 1.16899 30.566 1.69319L26.6776 12.3741C26.0721 12.0664 25.4101 11.808 24.689 11.5964C23.9729 11.3872 23.1731 11.2814 22.2871 11.2814C19.6735 11.2814 17.4635 12.1723 15.6521 13.9491C13.8458 15.7284 12.9352 18.0418 12.9155 20.8892V47.2419H0Z" fill="#000A15"/>
<path d="M42.3597 48.1181C37.9102 48.1181 34.2186 46.9565 31.2851 44.6333C28.3564 42.31 26.8946 38.8449 26.8946 34.2379C26.8946 30.7604 27.7117 28.0311 29.3458 26.0476C30.9848 24.0664 33.1358 22.6169 35.7937 21.6965C38.4516 20.7785 41.3162 20.178 44.3876 19.895C48.4286 19.4889 51.3203 19.0632 53.0603 18.6152C54.7977 18.1698 55.669 17.2026 55.669 15.7112V15.5242C55.669 13.6021 55.0635 12.1157 53.8576 11.0648C52.6567 10.0164 50.9561 9.48975 48.7584 9.48975C46.4352 9.48975 44.5845 9.99672 43.2063 11.0057C41.833 12.0172 40.9249 13.2994 40.4795 14.8548L28.5287 13.8901C29.4196 9.64479 31.6296 6.2781 35.1538 3.79C38.6829 1.30436 43.2383 0.059082 48.8174 0.059082C52.2752 0.059082 55.5114 0.607892 58.5237 1.70305C61.536 2.79329 63.9626 4.49632 65.8084 6.81215C67.6591 9.12305 68.5844 12.128 68.5844 15.8294V47.2419H56.3384V40.7842H55.9741C54.8371 42.945 53.1415 44.7071 50.8847 46.0705C48.6329 47.4339 45.7904 48.1181 42.3597 48.1181ZM46.0611 39.2091C48.8888 39.2091 51.212 38.3872 53.0307 36.7383C54.847 35.0918 55.7575 33.0443 55.7575 30.5955V25.6538C55.2506 25.9959 54.468 26.2986 53.4048 26.5595C52.3466 26.8228 51.2145 27.0517 50.0086 27.2485C48.8076 27.4405 47.7346 27.6029 46.7896 27.7407C44.5254 28.0705 42.6993 28.7104 41.3162 29.6603C39.9307 30.6054 39.2391 31.9885 39.2391 33.8047C39.2391 35.5914 39.879 36.9401 41.1587 37.8507C42.4434 38.7563 44.0775 39.2091 46.0611 39.2091Z" fill="#000A15"/>
<path d="M84.0213 20.3183V47.2419H71.1058V0.669417H83.411V8.87941H83.9623C85.0107 6.1772 86.7432 4.03118 89.16 2.44136C91.5742 0.853995 94.5102 0.059082 97.9704 0.059082C102.819 0.059082 106.707 1.62184 109.636 4.74488C112.569 7.87039 114.036 12.1526 114.036 17.5915V47.2419H101.121V19.895C101.14 17.0402 100.412 14.813 98.9352 13.2108C97.4585 11.6038 95.4257 10.799 92.8417 10.799C90.2354 10.799 88.1189 11.6333 86.4922 13.2994C84.863 14.968 84.041 17.306 84.0213 20.3183Z" fill="#000A15"/>
<path d="M137.903 48.1476C133.131 48.1476 129.016 47.173 125.558 45.2239C122.098 43.2748 119.44 40.5061 117.585 36.9155C115.727 33.3273 114.799 29.0771 114.799 24.1673C114.799 19.3782 115.727 15.1747 117.585 11.557C119.44 7.93438 122.064 5.11404 125.45 3.09107C128.836 1.07057 132.813 0.059082 137.381 0.059082C141.489 0.059082 145.192 0.930287 148.495 2.66777C151.803 4.40772 154.424 7.03364 156.361 10.5431C158.302 14.0476 159.274 18.4381 159.274 23.7145V27.2584H127.557V27.2879C127.557 30.7678 128.507 33.5069 130.411 35.5078C132.314 37.511 134.881 38.5102 138.11 38.5102C140.275 38.5102 142.146 38.0574 143.721 37.1517C145.296 36.2411 146.408 34.895 147.058 33.1156L159.009 33.9032C158.096 38.2297 155.79 41.6849 152.088 44.269C148.392 46.8556 143.664 48.1476 137.903 48.1476ZM127.557 19.2551H147.117C147.097 16.4865 146.206 14.2026 144.449 12.4036C142.69 10.6071 140.406 9.70632 137.598 9.70632C134.728 9.70632 132.373 10.6366 130.53 12.4922C128.691 14.3503 127.699 16.6046 127.557 19.2551Z" fill="#000A15"/>
<path d="M198.937 13.9491L187.114 14.6776C186.792 13.1813 185.972 11.8991 184.653 10.8285C183.339 9.75308 181.562 9.21411 179.318 9.21411C177.314 9.21411 175.621 9.63495 174.238 10.4742C172.852 11.3158 172.171 12.4331 172.19 13.831C172.171 14.9409 172.609 15.8786 173.509 16.6464C174.408 17.4143 175.941 18.032 178.107 18.4971L186.533 20.1903C195.491 22.0361 199.98 26.242 200 32.8105C200 35.8621 199.104 38.5397 197.313 40.8433C195.526 43.1468 193.075 44.9433 189.959 46.228C186.848 47.5077 183.28 48.1476 179.258 48.1476C173.096 48.1476 168.184 46.8629 164.522 44.2887C160.865 41.7095 158.733 38.1952 158.123 33.7457L170.832 33.0861C171.231 34.9836 172.163 36.4183 173.628 37.388C175.097 38.3601 176.984 38.8449 179.288 38.8449C181.552 38.8449 183.376 38.4019 184.761 37.516C186.144 36.6251 186.848 35.4881 186.868 34.1099C186.809 31.8064 184.815 30.2608 180.893 29.4733L172.83 27.8687C163.813 26.0722 159.324 21.6325 159.363 14.5496C159.344 10.0681 161.138 6.53405 164.748 3.94751C168.356 1.35605 173.145 0.059082 179.111 0.059082C184.99 0.059082 189.624 1.30436 193.011 3.79C196.397 6.2781 198.371 9.66448 198.937 13.9491Z" fill="#000A15"/>
</svg>
