<?xml version="1.0" encoding="UTF-8"?>
<svg id="Layer_2" data-name="Layer 2" xmlns="http://www.w3.org/2000/svg" viewBox="0 0 229.78 89.99">
  <defs>
    <style>
      .cls-1 {
        fill: #fcfbfb;
      }

      .cls-2 {
        fill: #f9be2f;
      }

      .cls-3 {
        fill: #f9be2f;
      }
    </style>
  </defs>
  <g id="Layer_1-2" data-name="Layer 1">
    <g>
      <g>
        <path class="cls-2" d="M176.2,66.87c-.89-1.96-2.09-3.64-3.6-5.02-1.47-1.34-3.21-2.39-5.23-3.14-2.01-.75-4.17-1.13-6.46-1.13s-4.48.39-6.52,1.16c-2.04.77-3.81,1.87-5.29,3.3-1.5,1.46-2.68,3.21-3.54,5.25-.86,2.04-1.29,4.32-1.29,6.83s.44,4.6,1.32,6.56c.88,1.96,2.07,3.63,3.57,5,1.51,1.4,3.27,2.47,5.26,3.2s4.1,1.1,6.34,1.1c2.77,0,5.16-.42,7.16-1.27,2.01-.84,3.75-2.02,5.24-3.54,1.41-1.46,2.5-3.2,3.25-5.22.75-2.02,1.13-4.15,1.13-6.38,0-2.51-.44-4.75-1.33-6.71ZM168.44,79.37c-.29,1.66-.76,3.15-1.41,4.47-.61,1.26-1.42,2.25-2.45,2.97-1.02.72-2.25,1.08-3.68,1.08s-2.68-.36-3.68-1.07c-1-.72-1.82-1.72-2.47-3-.64-1.27-1.1-2.76-1.4-4.47-.3-1.7-.44-3.52-.44-5.44,0-4.52.68-8.02,2.03-10.5,1.36-2.48,3.34-3.72,5.95-3.72,1.53,0,2.81.4,3.83,1.19,1.02.79,1.85,1.85,2.47,3.16.61,1.32,1.04,2.81,1.29,4.5.25,1.68.38,3.41.38,5.19,0,2.1-.14,3.97-.43,5.64Z"/>
        <path class="cls-2" d="M193.43,89.99c-1.88,0-3.62-.23-5.25-.7s-3-1.02-4.12-1.66l-1.49,1.51h-1.84l-.28-11.1h1.86c.42,1.06.95,2.17,1.6,3.34s1.4,2.22,2.25,3.14c.88.97,1.86,1.76,2.95,2.36,1.09.61,2.36.91,3.82.91,1.96,0,3.47-.48,4.51-1.44,1.05-.96,1.57-2.17,1.57-3.63,0-1.2-.44-2.21-1.33-3.02s-2.26-1.52-4.12-2.12c-1.21-.39-2.33-.75-3.34-1.09s-1.97-.67-2.87-1.02c-2.06-.82-3.6-2-4.6-3.53-1-1.53-1.5-3.24-1.5-5.14,0-1.2.26-2.35.78-3.46.52-1.11,1.28-2.1,2.27-2.98.95-.82,2.17-1.49,3.66-2.02,1.49-.52,3.1-.78,4.85-.78s3.3.24,4.78.71c1.49.48,2.65.95,3.51,1.43l1.32-1.3h1.88l.17,10.47h-1.86c-.43-1.13-.94-2.28-1.53-3.46s-1.2-2.16-1.85-2.94c-.71-.84-1.52-1.51-2.45-2.01-.92-.5-2.01-.75-3.25-.75-1.56,0-2.83.44-3.82,1.32-.99.88-1.48,1.97-1.48,3.27,0,1.23.43,2.23,1.29,3.01.86.78,2.2,1.47,4.01,2.06,1.07.36,2.16.72,3.27,1.08,1.11.36,2.1.71,2.96,1.04,2.09.81,3.68,1.93,4.77,3.35,1.09,1.42,1.63,3.19,1.63,5.3,0,1.33-.31,2.62-.93,3.86-.62,1.24-1.46,2.28-2.51,3.1-1.15.91-2.49,1.61-4,2.1-1.51.49-3.28.74-5.3.74Z"/>
      </g>
      <rect class="cls-3" y="0" width="5.52" height="62.88"/>
      <path class="cls-1" d="M52.9,21.01c-2.58-3.15-6.1-4.73-10.55-4.73-1.7,0-3.41.4-5.14,1.19-1.73.8-3.31,1.92-4.73,3.36l-.26-.06v-3.58l-.49-.42-15.76.84v2.36c.69.06,1.39.19,2.1.37.71.18,1.28.41,1.71.69.58.41,1.01.88,1.28,1.42.27.54.44,1.16.5,1.87v33.04c0,.73-.12,1.38-.37,1.95-.25.57-.72.97-1.4,1.21-.41.13-1.02.25-1.84.37-.82.12-1.5.2-2.03.24v2.39h23.35v-2.39c-.71-.04-1.6-.16-2.66-.36s-1.89-.41-2.47-.65c-.6-.26-1.07-.67-1.4-1.23-.33-.56-.5-1.22-.5-1.97v-9.08h.26c.84.6,1.9,1.11,3.19,1.53,1.29.42,2.97.63,5.03.63,4.64,0,8.48-1.63,11.51-4.88,3.03-3.25,4.55-7.15,4.55-11.69,0-5.15-1.29-9.3-3.87-12.45ZM43.26,43.68c-1.28,2.29-2.98,3.44-5.11,3.44-.82,0-1.57-.14-2.26-.42-.69-.28-1.3-.71-1.84-1.29-.37-.41-.73-.95-1.1-1.63-.37-.68-.61-1.23-.74-1.66v-18.31c.62-.78,1.35-1.4,2.19-1.89.84-.48,1.95-.73,3.35-.73s2.54.34,3.49,1.03c.96.69,1.72,1.61,2.3,2.78.6,1.16,1.02,2.48,1.26,3.96.24,1.47.35,3.02.35,4.63,0,4.44-.64,7.8-1.92,10.09Z"/>
      <path class="cls-1" d="M95.71,46.1c-.79-.03-1.36-.13-1.73-.31-.6-.28-1.05-.7-1.34-1.26-.29-.56-.44-1.32-.44-2.29,0-1.05.05-3.25.15-6.59.1-3.34.15-6.22.15-8.66,0-2.3-.39-4.17-1.18-5.6-.79-1.43-1.85-2.52-3.18-3.28-1.4-.78-2.97-1.29-4.72-1.53-1.74-.25-3.66-.37-5.75-.37-1.51,0-3.14.18-4.91.53-1.77.36-3.33.86-4.68,1.5-1.38.62-2.55,1.42-3.5,2.37s-1.44,2.04-1.44,3.25c0,1.4.46,2.54,1.39,3.41s2.3,1.31,4.11,1.31c1.27,0,2.22-.12,2.83-.36.62-.24,1.17-.57,1.67-1,.37-.32.65-.76.84-1.31s.29-1.01.29-1.37c0-.82-.15-1.67-.45-2.55-.3-.88-.49-1.54-.55-1.97.39-.28.9-.55,1.53-.82.64-.27,1.43-.4,2.37-.4,1.06,0,1.91.24,2.55.71.65.47,1.12,1.06,1.42,1.74.28.6.46,1.35.55,2.23.09.88.13,1.59.13,2.13v3.1c-1.25.6-3.24,1.29-5.95,2.05-2.72.77-5.05,1.5-6.99,2.22-1.01.39-1.95.81-2.8,1.26-.85.45-1.6,1.02-2.25,1.71-.71.75-1.26,1.62-1.65,2.6-.39.98-.58,2.17-.58,3.57,0,2.44.88,4.39,2.65,5.87,1.77,1.48,3.9,2.22,6.41,2.22,1.68,0,2.99-.12,3.93-.36.94-.24,1.91-.59,2.93-1.07.78-.37,1.5-.81,2.18-1.32s1.39-1.14,2.12-1.87h.19c.45,1.46,1.3,2.59,2.55,3.37,1.25.79,3.19,1.18,5.83,1.18,1.44,0,2.8-.17,4.09-.52,1.29-.34,2.41-.72,3.35-1.13v-2.36c-.65,0-1.36-.02-2.15-.05ZM81.71,42.66c-.58.71-1.26,1.31-2.03,1.8-.77.49-1.74.73-2.93.73-1.12,0-2.07-.38-2.84-1.13s-1.15-1.98-1.15-3.66c0-1.27.23-2.38.68-3.32.45-.94,1.08-1.71,1.88-2.31.76-.58,1.73-1.14,2.92-1.67,1.19-.53,2.39-1,3.6-1.41l-.13,10.97Z"/>
      <path class="cls-1" d="M135.81,21.01c-2.58-3.15-6.1-4.73-10.55-4.73-1.7,0-3.41.4-5.14,1.19-1.73.8-3.31,1.92-4.73,3.36l-.26-.06v-3.58l-.49-.42-15.76.84v2.36c.69.06,1.39.19,2.1.37.71.18,1.28.41,1.71.69.58.41,1.01.88,1.28,1.42.27.54.44,1.16.5,1.87v33.04c0,.73-.12,1.38-.37,1.95-.25.57-.72.97-1.4,1.21-.41.13-1.02.25-1.84.37-.82.12-1.5.2-2.03.24v2.39h23.35v-2.39c-.71-.04-1.6-.16-2.66-.36s-1.89-.41-2.47-.65c-.6-.26-1.07-.67-1.4-1.23-.33-.56-.5-1.22-.5-1.97v-9.08h.26c.84.6,1.9,1.11,3.19,1.53,1.29.42,2.97.63,5.03.63,4.64,0,8.48-1.63,11.51-4.88,3.03-3.25,4.55-7.15,4.55-11.69,0-5.15-1.29-9.3-3.87-12.45ZM126.17,43.68c-1.28,2.29-2.98,3.44-5.11,3.44-.82,0-1.57-.14-2.26-.42-.69-.28-1.3-.71-1.84-1.29-.37-.41-.73-.95-1.1-1.63-.37-.68-.61-1.23-.74-1.66v-18.31c.62-.78,1.35-1.4,2.19-1.89.84-.48,1.95-.73,3.35-.73s2.54.34,3.49,1.03c.96.69,1.72,1.61,2.3,2.78.6,1.16,1.02,2.48,1.26,3.96.24,1.47.35,3.02.35,4.63,0,4.44-.64,7.8-1.92,10.09Z"/>
      <path class="cls-1" d="M176.11,39.69c-1.14,1.7-2.52,3.11-4.13,4.21-1.61,1.11-3.43,1.66-5.46,1.66-3.7,0-6.41-1.15-8.11-3.46-1.7-2.3-2.55-5.66-2.55-10.08h21.83v-2.1c0-1.83-.28-3.58-.84-5.25-.56-1.67-1.45-3.12-2.68-4.34-1.27-1.29-2.87-2.3-4.81-3.04-1.94-.73-4.41-1.1-7.43-1.1-2.76,0-5.25.47-7.48,1.42-2.23.95-4.07,2.19-5.54,3.71-1.49,1.57-2.63,3.36-3.44,5.38-.81,2.01-1.21,4.12-1.21,6.31,0,2.43.37,4.69,1.11,6.77.74,2.08,1.87,3.88,3.37,5.41,1.51,1.53,3.42,2.75,5.73,3.65,2.31.9,5.06,1.36,8.25,1.36,1.92,0,3.61-.21,5.09-.63,1.47-.42,2.93-1.04,4.38-1.86,1.36-.78,2.57-1.71,3.63-2.79,1.07-1.09,1.98-2.24,2.73-3.47l-2.45-1.78ZM157.47,21.35c.99-1.68,2.31-2.52,3.97-2.52.97,0,1.77.26,2.41.78.63.52,1.14,1.28,1.5,2.29.32.86.55,1.97.68,3.33s.19,2.68.19,3.97l-10.37.13c.09-3.64.62-6.3,1.61-7.98Z"/>
      <path class="cls-1" d="M213.83,23.06c0,1.64-.51,3.07-1.52,4.31-1.01,1.24-2.35,1.86-4,1.86-1.57,0-2.9-.4-3.99-1.19-1.09-.79-1.63-1.96-1.63-3.51,0-.75.05-1.33.16-1.75.11-.42.2-.81.29-1.17-.99.04-2.03.38-3.13,1.02-1.1.64-2.07,1.49-2.91,2.56v17.73c0,.75.12,1.38.36,1.87.24.5.63.88,1.19,1.16.47.24,1.24.44,2.31.6s1.84.25,2.31.27v2.36h-21.61v-2.36c.54-.04,1.08-.1,1.63-.18.55-.08,1.02-.18,1.4-.31.69-.24,1.16-.6,1.42-1.1.26-.5.39-1.14.39-1.94v-18.8c0-.78-.18-1.47-.55-2.08-.37-.61-.81-1.1-1.32-1.47-.39-.26-.88-.47-1.47-.65-.59-.17-1.24-.29-1.95-.36v-2.36l15.4-.84.48.48v4.68h.13c1.49-1.72,3.06-3.07,4.73-4.05,1.67-.98,3.41-1.47,5.22-1.47,2,0,3.61.62,4.83,1.86,1.22,1.24,1.82,2.84,1.82,4.8Z"/>
      <rect class="cls-3" x="224.26" y="0" width="5.52" height="62.88"/>
    </g>
  </g>
</svg>